<svg width="251" height="28" viewBox="0 0 251 28" fill="none" xmlns="http://www.w3.org/2000/svg">
<path d="M0 20.9042C0.241564 16.5624 0.421134 12.5082 0.538709 8.74152C0.656285 4.97483 0.716142 2.15409 0.718279 0.279297C0.984427 0.279297 1.20889 0.295331 1.39167 0.295331C1.57444 0.295331 1.7957 0.295331 2.03299 0.295331L1.62254 9.9472H15.661L15.9721 2.35717C15.9956 1.92963 16.0063 1.23914 16.0041 0.285711C16.2703 0.285711 16.4948 0.285711 16.6775 0.285711C16.8603 0.285711 17.0784 0.285711 17.3189 0.285711C16.9341 6.53217 16.6647 13.4071 16.5108 20.9106C16.2607 20.9106 16.0426 20.8945 15.8695 20.8945C15.6963 20.8945 15.443 20.8945 15.1961 20.9106C15.4398 17.4047 15.5916 14.0549 15.6514 10.8611H1.60651L1.36281 18.278L1.33074 20.9074C1.07101 20.9074 0.846543 20.9074 0.666974 20.9074C0.487404 20.9074 0.259735 20.8945 0 20.9042Z" fill="white"/>
<path d="M32.7587 19.4227C32.678 19.802 32.617 20.1852 32.5759 20.5707C31.8399 20.7889 31.09 20.9571 30.3313 21.0741C29.6558 21.1712 28.9742 21.2194 28.2919 21.2184C27.2028 21.2359 26.1186 21.0689 25.0853 20.7246C24.1575 20.4017 23.3312 19.8398 22.6899 19.0957C22.0354 18.3546 21.5516 17.4789 21.2726 16.5304C20.6231 14.2407 20.7356 11.8018 21.5933 9.58167C22.1014 8.28365 23.0021 7.17661 24.1696 6.41496C25.337 5.65331 26.7131 5.27505 28.1059 5.33292C29.1631 5.323 30.2099 5.54177 31.1746 5.97424C32.0949 6.40019 32.8466 7.12136 33.3102 8.02326C33.8407 9.06565 34.102 10.2242 34.0702 11.3934C34.0702 11.6339 34.0702 11.868 34.0413 12.0892H22.0743C22.023 12.7306 21.9973 13.234 21.9973 13.5675C21.9847 14.5033 22.1155 15.4354 22.3853 16.3316C22.6357 17.168 23.0744 17.9359 23.6679 18.5762C24.2344 19.1805 24.9369 19.6411 25.717 19.9198C26.5266 20.2145 27.3821 20.3633 28.2438 20.3591C29.793 20.3232 31.3229 20.0059 32.7587 19.4227V19.4227ZM22.1769 11.2587L32.935 11.278C32.9362 10.7412 32.8954 10.2051 32.8132 9.67467C32.7334 9.27615 32.6008 8.89008 32.4188 8.5267C32.2417 8.15476 32.0104 7.81113 31.7325 7.507C31.4598 7.21709 31.1427 6.97246 30.793 6.78231C30.4149 6.57783 30.0102 6.42676 29.5905 6.33339C29.1336 6.23193 28.6669 6.18139 28.1989 6.18268C27.6698 6.18216 27.1425 6.2435 26.6276 6.36545C26.1403 6.47455 25.6677 6.64141 25.2199 6.86247C24.7892 7.07772 24.3891 7.34947 24.0303 7.67054C23.6778 7.97958 23.3721 8.33818 23.1228 8.73513C22.9036 9.07967 22.7209 9.44614 22.5777 9.82858C22.4211 10.2978 22.2905 10.7752 22.1865 11.2587H22.1769Z" fill="white"/>
<path d="M37.777 7.26006C37.8536 6.87107 37.9093 6.47822 37.9437 6.08324C38.8216 5.83174 39.7149 5.63787 40.618 5.50284C41.3785 5.39456 42.1458 5.34097 42.914 5.34251C43.7535 5.33745 44.5915 5.41695 45.4151 5.5798C46.0958 5.69612 46.7414 5.96467 47.3038 6.36542C47.7475 6.67543 48.0837 7.11587 48.2658 7.62562C48.4214 8.09408 48.5004 8.58457 48.4999 9.07821C48.4999 9.58057 48.4827 10.2219 48.4485 11.0022C48.4101 11.7718 48.3652 12.6055 48.3042 13.4873C48.2433 14.3691 48.1856 15.4786 48.1375 16.8029C48.0894 18.1272 48.0605 19.0828 48.0605 19.6664V20.949C47.7976 20.949 47.586 20.949 47.4192 20.949C47.2525 20.949 47.0376 20.949 46.7779 20.949C46.919 19.4056 47.0184 18.1561 47.0761 17.2005C47.1306 16.2385 47.1755 15.2124 47.2108 14.1126C47.2461 13.0127 47.2942 11.9802 47.3551 11.0214C47.0344 11.2843 46.8036 11.4767 46.6368 11.6018C46.4656 11.7295 46.2844 11.8431 46.0949 11.9417C45.8632 12.0606 45.6256 12.1676 45.383 12.2624C45.1073 12.3682 44.8539 12.458 44.6199 12.5349C44.3858 12.6119 43.8278 12.769 42.9364 13.0095C42.045 13.25 41.4068 13.4296 41.0124 13.5514C40.3213 13.7615 39.6489 14.0286 39.0019 14.3499C38.534 14.5896 38.1022 14.894 37.7193 15.2541C37.4385 15.514 37.2118 15.8267 37.0523 16.1744C36.8908 16.5614 36.8091 16.9769 36.8118 17.3961C36.7987 18.0164 37.0067 18.6211 37.3986 19.102C37.7848 19.5787 38.302 19.932 38.8865 20.1185C39.5888 20.331 40.3205 20.4305 41.0541 20.4135C41.4634 20.4143 41.8723 20.3918 42.279 20.3462C42.6702 20.3013 43.0422 20.2404 43.3885 20.1666C43.7348 20.0929 44.2383 19.9486 44.8924 19.7369C44.8026 20.1185 44.7257 20.5033 44.6648 20.8849C44.009 21.0253 43.3465 21.1323 42.6799 21.2056C42.1711 21.2505 41.6901 21.2729 41.2369 21.2729C40.4512 21.2787 39.6667 21.2132 38.8929 21.0773C38.2392 20.9734 37.622 20.7078 37.0972 20.3045C36.6378 19.9545 36.2694 19.4992 36.023 18.977C35.7933 18.4806 35.6751 17.9399 35.6767 17.3929C35.6757 16.9744 35.7473 16.5589 35.8883 16.1648C36.0363 15.7509 36.2531 15.365 36.5296 15.0232C36.8031 14.6925 37.1279 14.4078 37.4916 14.1799C37.9828 13.8498 38.5099 13.5765 39.0628 13.3654C39.7266 13.1025 40.4449 12.862 41.208 12.6407C41.4197 12.583 42.2502 12.365 43.6996 11.9994C44.3346 11.8356 44.9554 11.6211 45.5562 11.3581C46.0993 11.1345 46.5699 10.7649 46.9158 10.2903C47.2205 9.88694 47.3899 9.39763 47.4 8.89222C47.3999 8.54935 47.3232 8.21083 47.1755 7.90138C46.9843 7.54004 46.7067 7.2316 46.3675 7.00353C45.9355 6.70358 45.4429 6.50217 44.9245 6.41352C44.3271 6.30121 43.7206 6.24538 43.1128 6.24678C42.4207 6.24378 41.7294 6.29201 41.0445 6.39107C40.4951 6.46255 39.951 6.56967 39.4155 6.71173C38.8602 6.86602 38.3133 7.04905 37.777 7.26006V7.26006Z" fill="white"/>
<path d="M52.3702 20.9234C52.8363 12.5221 53.111 5.64823 53.1943 0.301758C53.4541 0.301758 53.6625 0.301758 53.8132 0.301758C53.9639 0.301758 54.1724 0.301758 54.4321 0.301758L54.0505 7.67374L53.6112 20.9427C53.3483 20.9427 53.1398 20.9266 52.9891 20.9266C52.8384 20.9266 52.6332 20.9138 52.3702 20.9234Z" fill="white"/>
<path d="M64.2924 19.9775C64.2096 20.2936 64.1485 20.6151 64.1096 20.9395C63.376 21.1286 62.6225 21.2298 61.865 21.2409C61.3479 21.2476 60.8322 21.1839 60.3323 21.0517C59.9063 20.9395 59.5242 20.7015 59.2356 20.3687C58.962 20.0585 58.7703 19.6848 58.6776 19.2817C58.5851 18.8605 58.54 18.4303 58.543 17.9991C58.543 17.9189 58.543 17.7938 58.543 17.6207C58.543 17.4475 58.5654 17.0724 58.5975 16.4888L59.1073 6.48736H57.2411C57.2796 6.2148 57.3052 5.94544 57.318 5.67288H59.1618C59.2132 5.03156 59.2548 4.08455 59.2869 2.83183C59.6227 2.79169 59.955 2.7263 60.2809 2.63623C60.2061 4.26946 60.1698 5.28168 60.1719 5.67288H64.7125C64.6709 5.94264 64.6452 6.2146 64.6355 6.48736H60.1206L59.6204 16.8383V17.4571C59.5795 18.0858 59.6792 18.7156 59.9122 19.3009C60.0891 19.6623 60.3813 19.9545 60.7427 20.1315C61.0896 20.2995 61.4699 20.3872 61.8554 20.388C62.1462 20.3861 62.4365 20.3647 62.7244 20.3238C63.0194 20.2757 63.5453 20.1603 64.2924 19.9775Z" fill="white"/>
<path d="M66.7839 20.93L67.2425 11.0794C67.2703 10.1238 67.3312 7.65577 67.4253 3.67531L67.5182 0.305176C67.7491 0.305176 67.9415 0.305176 68.0922 0.305176C68.2429 0.305176 68.461 0.305176 68.6822 0.305176L68.2686 9.12653C68.4995 8.6541 68.6983 8.28213 68.865 8.01064C69.0573 7.70628 69.2832 7.42446 69.5384 7.17051C69.8119 6.89265 70.1139 6.64438 70.4395 6.42978C70.7778 6.21433 71.1365 6.03281 71.5105 5.88787C71.9652 5.7149 72.4355 5.58605 72.915 5.50307C73.4768 5.4012 74.0467 5.35076 74.6177 5.35236C75.4564 5.34765 76.2927 5.44237 77.1092 5.63455C77.8403 5.79444 78.5269 6.1142 79.1197 6.57087C79.6467 6.97484 80.0455 7.5228 80.2677 8.14852C80.478 8.74057 80.5865 9.36401 80.5884 9.99232C80.5884 10.1943 80.5884 10.4765 80.5884 10.8389C80.567 11.3947 80.5242 12.1429 80.4601 13.0835L80.21 19.2337C80.1907 19.6249 80.1683 20.1957 80.1458 20.9268C79.8861 20.9268 79.6873 20.9108 79.5494 20.9108C79.4115 20.9108 79.1967 20.9108 78.9369 20.9268C79.0567 19.6249 79.1475 18.3145 79.2095 16.9955L79.4211 13.3112C79.4917 12.1728 79.5302 11.1916 79.5302 10.3643C79.5637 9.55021 79.3788 8.74199 78.9947 8.02346C78.5744 7.37004 77.9375 6.88533 77.1958 6.65425C76.3407 6.34387 75.4375 6.18754 74.5279 6.1925C73.9072 6.19228 73.2886 6.26328 72.6841 6.40413C72.1707 6.51844 71.6732 6.69504 71.2026 6.93001C70.8535 7.11338 70.5301 7.34195 70.2407 7.60981C69.9153 7.91505 69.6308 8.26102 69.3941 8.63913C69.1104 9.11484 68.8823 9.62161 68.7143 10.1494C68.5095 10.8228 68.3773 11.5162 68.3199 12.2177C68.2494 12.8954 68.1788 14.2154 68.1083 16.1779L67.9864 20.9204C67.7235 20.9204 67.5279 20.9204 67.3964 20.9204C67.2649 20.9204 67.0469 20.9204 66.7839 20.93Z" fill="white"/>
<path d="M100.04 19.3425C99.9511 19.7511 99.8857 20.1643 99.8439 20.5803C98.8939 20.8164 97.93 20.9932 96.958 21.1093C96.1533 21.2041 95.344 21.2534 94.5338 21.2568C93.1085 21.2642 91.6926 21.0245 90.3492 20.5482C89.0759 20.101 87.9159 19.3809 86.9502 18.4382C86.0064 17.5094 85.2927 16.3729 84.8659 15.1194C84.4197 13.8217 84.1964 12.4578 84.2053 11.0855C84.2025 9.53117 84.4661 7.98784 84.9845 6.52252C85.4304 5.15639 86.1947 3.91588 87.2145 2.90337C88.2342 1.89086 89.4801 1.1354 90.8494 0.699326C92.2897 0.226632 93.7971 -0.00944129 95.313 0.000288954C95.8485 0.000288954 96.4225 0.0259386 97.0446 0.0772443C97.6666 0.12855 98.1701 0.183063 98.5709 0.243989C98.9717 0.304914 99.4976 0.40432 100.174 0.54541C100.196 0.975051 100.241 1.40321 100.309 1.82805C99.3744 1.5098 98.4157 1.26745 97.4422 1.10336C96.674 0.984074 95.898 0.922977 95.1206 0.920582C93.8456 0.916799 92.5785 1.12041 91.3689 1.52342C90.179 1.91682 89.0937 2.57459 88.1944 3.44739C87.2501 4.37756 86.5278 5.50868 86.0812 6.7566C85.5951 8.05817 85.3464 9.43638 85.3469 10.8258C85.3425 12.1323 85.546 13.4311 85.9497 14.6737C86.3121 15.8313 86.944 16.8863 87.7935 17.752C88.6306 18.5836 89.6367 19.2256 90.7436 19.6343C91.94 20.0716 93.2056 20.2889 94.4793 20.2756C96.3694 20.2494 98.2444 19.9347 100.04 19.3425Z" fill="white"/>
<path d="M104.231 7.28594C104.307 6.89694 104.363 6.5041 104.397 6.10912C105.275 5.85828 106.169 5.66336 107.072 5.52552C107.832 5.42148 108.6 5.36899 109.368 5.36839C110.207 5.36333 111.045 5.44283 111.869 5.60568C112.555 5.71968 113.206 5.98833 113.773 6.3913C114.216 6.70193 114.553 7.14215 114.735 7.65149C114.891 8.11996 114.97 8.61045 114.969 9.10409C114.969 9.60645 114.952 10.2478 114.918 11.028C114.883 11.7976 114.835 12.6313 114.774 13.5132C114.713 14.395 114.655 15.5045 114.607 16.8288C114.559 18.1531 114.53 19.1087 114.53 19.6923V20.9749C114.267 20.9749 114.056 20.9589 113.889 20.9589C113.722 20.9589 113.504 20.9589 113.247 20.9749C113.389 19.4315 113.488 18.182 113.546 17.2264C113.603 16.2708 113.648 15.2415 113.68 14.1384C113.717 13.0354 113.766 12.005 113.828 11.0473C113.507 11.3102 113.273 11.5026 113.106 11.6277C112.936 11.7572 112.755 11.8709 112.564 11.9676C112.334 12.0884 112.096 12.1955 111.853 12.2882C111.577 12.3941 111.324 12.4838 111.089 12.5608C110.855 12.6378 110.297 12.7949 109.406 13.0354C108.515 13.2759 107.876 13.4554 107.482 13.5773C106.791 13.7888 106.119 14.0559 105.471 14.3757C105.004 14.6154 104.572 14.9199 104.189 15.28C103.908 15.5399 103.681 15.8526 103.522 16.2003C103.36 16.5872 103.279 17.0027 103.281 17.422C103.27 18.0421 103.478 18.6463 103.868 19.1279C104.254 19.6046 104.772 19.9579 105.356 20.1444C106.058 20.3566 106.79 20.4562 107.524 20.4394C107.933 20.4397 108.342 20.4183 108.749 20.3753C109.143 20.3272 109.512 20.2663 109.858 20.1925C110.204 20.1188 110.708 19.9745 111.362 19.7628C111.272 20.1444 111.195 20.5292 111.134 20.9108C110.479 21.0512 109.816 21.1582 109.149 21.2315C108.639 21.2763 108.158 21.2988 107.706 21.2988C106.921 21.3046 106.136 21.2391 105.362 21.1032C104.709 20.999 104.093 20.7345 103.567 20.3336C103.11 19.9821 102.743 19.5271 102.496 19.0061C102.261 18.5043 102.142 17.9566 102.146 17.4028C102.145 16.9842 102.217 16.5687 102.358 16.1746C102.506 15.7607 102.723 15.3748 102.999 15.0331C103.273 14.7024 103.597 14.4176 103.961 14.1898C104.452 13.8596 104.98 13.5864 105.532 13.3753C106.196 13.1155 106.914 12.8718 107.678 12.6538C107.891 12.5939 108.722 12.3802 110.169 12.0125C110.805 11.8481 111.427 11.6337 112.029 11.3712C112.572 11.1485 113.042 10.7787 113.385 10.3034C113.69 9.89999 113.86 9.41068 113.87 8.90527C113.87 8.5634 113.793 8.22586 113.645 7.91764C113.455 7.55467 113.177 7.24494 112.837 7.01658C112.405 6.71663 111.912 6.51522 111.394 6.42657C110.798 6.31425 110.192 6.25842 109.586 6.25983C108.892 6.25672 108.2 6.30495 107.514 6.40412C106.965 6.4756 106.421 6.58272 105.885 6.72478C105.324 6.88275 104.772 7.07006 104.231 7.28594V7.28594Z" fill="white"/>
<path d="M118.715 20.9489C118.837 18.8262 118.953 16.3282 119.064 13.4551C119.176 10.582 119.232 8.44426 119.234 7.04191V5.68231C119.436 5.68231 119.622 5.69834 119.795 5.69834C119.969 5.69834 120.161 5.69834 120.353 5.69834L120.219 8.55222C120.48 7.9994 120.803 7.47772 121.181 6.99702C121.469 6.64732 121.814 6.34821 122.2 6.112C122.623 5.86265 123.082 5.67987 123.56 5.57008C124.091 5.44276 124.636 5.37925 125.183 5.38089C125.605 5.38239 126.026 5.43296 126.436 5.5316C126.437 5.87557 126.458 6.21921 126.497 6.56092C125.925 6.4052 125.336 6.31907 124.743 6.30439C124.299 6.29768 123.857 6.36375 123.435 6.49999C123.044 6.63183 122.677 6.82563 122.348 7.07398C121.968 7.36682 121.634 7.71485 121.357 8.1065C121.042 8.53093 120.796 9.00287 120.629 9.50458C120.406 10.185 120.27 10.8906 120.222 11.6049C120.113 12.8875 120.045 14.3583 120.017 16.0172C119.976 18.2426 119.956 19.8897 119.956 20.9586C119.693 20.9586 119.491 20.9586 119.347 20.9586C119.202 20.9586 118.978 20.9393 118.715 20.9489Z" fill="white"/>
<path d="M139.959 19.4642C139.878 19.8435 139.817 20.2267 139.776 20.6122C139.04 20.8304 138.29 20.9986 137.531 21.1156C136.856 21.2127 136.174 21.2609 135.492 21.2599C134.403 21.2774 133.319 21.1104 132.285 20.7661C131.358 20.4416 130.532 19.88 129.89 19.1372C129.236 18.3954 128.753 17.5199 128.473 16.5719C127.818 14.2839 127.925 11.8451 128.777 9.62318C129.285 8.32515 130.186 7.21811 131.353 6.45646C132.521 5.69481 133.897 5.31655 135.29 5.37443C136.347 5.3645 137.394 5.58328 138.359 6.01575C139.279 6.44087 140.031 7.16227 140.494 8.06477C141.026 9.10663 141.287 10.2656 141.254 11.4349C141.254 11.6754 141.254 11.9095 141.225 12.1307H129.258C129.21 12.7721 129.184 13.2755 129.184 13.609C129.181 14.5496 129.323 15.4852 129.604 16.3827C129.855 17.2191 130.294 17.987 130.887 18.6273C131.454 19.2309 132.156 19.6914 132.936 19.9709C133.746 20.2654 134.601 20.4141 135.463 20.4102C137.006 20.3689 138.529 20.0484 139.959 19.4642V19.4642ZM129.377 11.3002L140.135 11.3195C140.138 10.7826 140.097 10.2464 140.013 9.71616C139.933 9.31765 139.801 8.93158 139.619 8.5682C139.442 8.19626 139.21 7.85263 138.932 7.5485C138.66 7.25789 138.343 7.01317 137.993 6.82381C137.616 6.61954 137.212 6.46949 136.794 6.3781C136.337 6.27434 135.87 6.2227 135.402 6.22418C134.872 6.2235 134.343 6.28485 133.828 6.40695C133.34 6.51606 132.868 6.68291 132.42 6.90398C131.99 7.12 131.59 7.39168 131.23 7.71204C130.878 8.02107 130.572 8.37969 130.323 8.77663C130.105 9.12193 129.922 9.48826 129.778 9.87009C129.621 10.3393 129.49 10.8167 129.386 11.3002H129.377Z" fill="white"/>
<path d="M159.948 20.9685C160.143 18.2364 160.319 14.7092 160.478 10.3867C160.636 6.06418 160.715 2.71328 160.715 0.333984C162.951 0.333984 165.051 0.33933 167.016 0.350018H172.528C172.489 0.75405 172.467 1.11319 172.467 1.42423L171.258 1.32162C170.938 1.28955 170.405 1.27031 169.629 1.2639H167.346C164.96 1.2639 163.143 1.2639 161.895 1.2639L161.574 9.93776C163.094 9.96982 164.489 9.98586 165.759 9.98586C167.272 9.98586 169.136 9.97089 171.351 9.94097C171.313 10.2424 171.287 10.5823 171.274 10.9382L165.599 10.8805C164.932 10.8805 163.58 10.8955 161.545 10.9254L161.225 20.0065H165.557C167.267 20.0065 168.448 19.999 169.1 19.984C169.741 19.984 170.659 19.9327 171.794 19.8718C171.748 20.2281 171.724 20.5868 171.72 20.946C169.302 20.946 167.534 20.9407 166.416 20.93L159.948 20.9685Z" fill="white"/>
<path d="M189.048 20.9776C188.846 20.9776 188.66 20.9615 188.487 20.9615C188.314 20.9615 188.131 20.9615 187.929 20.9776L188.054 17.6972C187.891 18.0797 187.701 18.4505 187.487 18.8067C187.318 19.0617 187.128 19.302 186.919 19.525C186.661 19.7995 186.369 20.0408 186.05 20.2433C185.666 20.4877 185.252 20.6827 184.819 20.8236C184.343 20.9851 183.854 21.1021 183.357 21.1732C182.858 21.241 182.356 21.2752 181.853 21.2758C181.035 21.2815 180.219 21.1845 179.425 20.9872C178.695 20.8077 178.015 20.4669 177.434 19.9899C176.888 19.564 176.476 18.9895 176.248 18.3353C176.025 17.6445 175.917 16.9221 175.927 16.1965C175.927 15.583 175.995 14.0652 176.132 11.6432C176.269 9.2211 176.337 7.24369 176.337 5.71094C176.6 5.71094 176.796 5.72697 176.927 5.72697C177.059 5.72697 177.248 5.72697 177.517 5.72697C177.438 6.59275 177.32 8.39059 177.162 11.1205C177.003 13.8504 176.924 15.5605 176.924 16.251C176.907 16.9137 177.009 17.5741 177.226 18.2007C177.43 18.7397 177.798 19.2016 178.277 19.5218C178.788 19.8765 179.363 20.1261 179.971 20.2561C180.602 20.3969 181.247 20.4678 181.895 20.4677C182.571 20.4707 183.245 20.3823 183.899 20.2048C184.461 20.0682 185.001 19.8523 185.502 19.5635C185.924 19.3043 186.301 18.9796 186.621 18.6015C187.011 18.1343 187.335 17.6152 187.583 17.0591C187.843 16.4446 188.016 15.7972 188.099 15.1351C188.208 14.3741 188.302 12.9974 188.381 11.005C188.452 9.08107 188.492 7.32813 188.5 5.74621C188.773 5.74621 188.975 5.74621 189.106 5.74621C189.238 5.74621 189.427 5.74621 189.696 5.74621L189.135 16.328L189.074 18.6111C189.055 19.5239 189.046 20.3127 189.048 20.9776Z" fill="white"/>
<path d="M193.323 20.9782C193.445 18.8554 193.561 16.3574 193.672 13.4843C193.784 10.6112 193.84 8.47347 193.842 7.07112L193.826 5.71152C194.028 5.71152 194.214 5.71152 194.387 5.71152C194.561 5.71152 194.753 5.71152 194.945 5.71152L194.808 8.5654C195.07 8.01319 195.393 7.49163 195.77 7.01019C196.057 6.66061 196.4 6.36148 196.786 6.12517C197.209 5.87623 197.667 5.69348 198.146 5.58326C198.678 5.45613 199.224 5.39262 199.771 5.39407C200.194 5.39521 200.615 5.44688 201.025 5.54798C201.025 5.89094 201.045 6.2336 201.086 6.5741C200.514 6.41838 199.925 6.33225 199.332 6.31757C198.888 6.31086 198.446 6.37694 198.024 6.51317C197.633 6.64501 197.266 6.83881 196.937 7.08715C196.557 7.38067 196.224 7.7286 195.946 8.11968C195.631 8.54411 195.385 9.01604 195.218 9.51776C194.994 10.1981 194.856 10.9036 194.808 11.6181C194.701 12.9007 194.633 14.3715 194.606 16.0304C194.565 18.2557 194.545 19.9029 194.545 20.9717C194.282 20.9717 194.08 20.9557 193.935 20.9557C193.791 20.9557 193.586 20.9685 193.323 20.9782Z" fill="white"/>
<path d="M210.145 5.40985C211.065 5.40801 211.981 5.53979 212.864 5.80105C213.732 6.05744 214.527 6.5169 215.182 7.14141C215.882 7.82414 216.405 8.66725 216.705 9.59767C217.062 10.6389 217.241 11.7326 217.234 12.8331C217.237 14.0313 217.047 15.2221 216.673 16.3604C216.357 17.4128 215.821 18.3864 215.102 19.2175C214.452 19.9537 213.621 20.5065 212.691 20.8208C211.051 21.3594 209.294 21.4349 207.615 21.0388C206.917 20.8725 206.254 20.5884 205.652 20.1987C205.029 19.7924 204.485 19.2751 204.049 18.6724C203.569 18.0018 203.217 17.2485 203.01 16.4502C202.771 15.579 202.651 14.6793 202.654 13.7759C202.634 12.2447 202.942 10.727 203.558 9.32511C204.097 8.05546 205.054 7.00866 206.271 6.359C207.464 5.727 208.795 5.40087 210.145 5.40985V5.40985ZM210.116 6.25319C208.941 6.24438 207.785 6.54639 206.765 7.12859C205.722 7.72936 204.921 8.67353 204.498 9.79969C204.004 11.0532 203.757 12.3902 203.77 13.7374C203.763 14.6991 203.903 15.6562 204.187 16.5752C204.438 17.4225 204.897 18.1938 205.521 18.8199C206.075 19.3955 206.756 19.8346 207.509 20.1025C208.233 20.3424 208.991 20.4626 209.753 20.4584C210.615 20.4651 211.471 20.3174 212.28 20.0223C213.084 19.7169 213.799 19.214 214.358 18.5601C214.98 17.8282 215.431 16.9674 215.679 16.0397C215.966 15.0071 216.109 13.94 216.106 12.8684C216.111 11.8794 215.971 10.8951 215.689 9.94719C215.462 9.11754 215.02 8.36287 214.406 7.76029C213.843 7.22154 213.159 6.82473 212.412 6.6027C211.667 6.37537 210.894 6.25763 210.116 6.25319V6.25319Z" fill="white"/>
<path d="M220.233 27.6831L220.412 24.6337L220.89 10.9543L220.996 6.36564C222.127 6.05138 223.276 5.80404 224.437 5.62492C225.386 5.48583 226.344 5.41617 227.303 5.41649C228.62 5.38303 229.928 5.63803 231.135 6.16362C232.244 6.69848 233.13 7.60663 233.636 8.7289C234.25 10.0166 234.556 11.4294 234.531 12.8558C234.543 14.4047 234.215 15.9373 233.569 17.345C233.043 18.5845 232.147 19.6315 231.004 20.3432C229.918 20.9879 228.675 21.3208 227.412 21.3052C226.822 21.3049 226.234 21.2382 225.658 21.1064C225.106 20.9849 224.575 20.784 224.081 20.51C223.618 20.2578 223.205 19.9255 222.859 19.5287C222.404 18.9654 222.01 18.3547 221.685 17.7074L221.448 25.7014V26.2145C221.448 26.5576 221.448 27.0514 221.448 27.6927C221.185 27.6927 220.977 27.6927 220.826 27.6927C220.675 27.6927 220.508 27.6735 220.233 27.6831ZM222.176 7.30197C222.092 8.15706 222.017 9.38091 221.948 10.9735C221.881 12.5768 221.849 13.619 221.846 14.132C221.84 14.9535 221.932 15.7728 222.121 16.5723C222.309 17.3365 222.682 18.0426 223.208 18.6277C223.735 19.2336 224.393 19.7117 225.132 20.0258C225.863 20.3346 226.648 20.4938 227.441 20.4939C228.536 20.509 229.61 20.1878 230.516 19.5736C231.476 18.8951 232.211 17.9463 232.629 16.848C233.139 15.5983 233.394 14.2597 233.38 12.9103C233.411 11.6392 233.148 10.3781 232.61 9.22593C232.171 8.26833 231.437 7.4762 230.516 6.96527C229.588 6.48707 228.556 6.24479 227.512 6.25982C225.69 6.28869 223.887 6.64157 222.189 7.30197H222.176Z" fill="white"/>
<path d="M249.272 19.5062C249.191 19.8855 249.13 20.2686 249.089 20.6541C248.353 20.8738 247.603 21.042 246.844 21.1576C246.169 21.2546 245.487 21.3028 244.805 21.3019C243.716 21.3203 242.632 21.1544 241.598 20.8112C240.671 20.4871 239.846 19.9241 239.206 19.1791C238.551 18.438 238.066 17.5624 237.785 16.6138C237.131 14.3247 237.238 11.885 238.09 9.66189C238.6 8.36602 239.501 7.2616 240.669 6.50279C241.836 5.74398 243.212 5.36864 244.603 5.42917C245.66 5.41762 246.707 5.63646 247.671 6.07049C248.594 6.49165 249.347 7.21274 249.807 8.11631C250.338 9.15854 250.601 10.317 250.57 11.4864C250.57 11.7301 250.57 11.961 250.538 12.1823H238.571C238.523 12.8236 238.497 13.3302 238.497 13.6605C238.493 14.6023 238.634 15.5392 238.917 16.4374C239.167 17.274 239.606 18.042 240.2 18.6821C240.768 19.285 241.47 19.7462 242.249 20.0288C243.059 20.321 243.915 20.4686 244.776 20.4649C246.32 20.4196 247.843 20.0947 249.272 19.5062V19.5062ZM238.69 11.3421L249.448 11.3614C249.451 10.8245 249.41 10.2883 249.326 9.75809C249.247 9.3584 249.114 8.97121 248.932 8.60692C248.755 8.23498 248.523 7.89134 248.245 7.58722C247.974 7.29737 247.658 7.05273 247.309 6.86253C246.931 6.65878 246.526 6.50877 246.107 6.41681C245.649 6.31553 245.181 6.26499 244.712 6.2661C244.183 6.26453 243.655 6.3248 243.141 6.44567C242.654 6.55623 242.181 6.72302 241.733 6.94269C241.303 7.15871 240.903 7.4304 240.543 7.75076C240.191 8.05979 239.885 8.4184 239.636 8.81534C239.417 9.16133 239.234 9.5288 239.091 9.912C238.934 10.3811 238.803 10.8586 238.699 11.3421H238.69Z" fill="white"/>
</svg>
