<svg width="144" height="32" viewBox="0 0 144 32" fill="none" xmlns="http://www.w3.org/2000/svg">
<g clip-path="url(#clip0_347_156)">
<path d="M32.3979 31.182V31.9998H28.9643V27.5752H32.3136V28.393H29.9965V29.3576H32.103V30.1545H29.9965V31.182H32.3979Z" fill="#231F20"/>
<path d="M42.6565 29.9871V27.5127H43.6887V29.9452C43.6887 30.784 44.0468 31.1405 44.6787 31.1405C45.3107 31.1405 45.6477 30.784 45.6477 29.9452V27.5127H46.6799V29.9871C46.7778 30.301 46.8003 30.6333 46.7455 30.9574C46.6906 31.2814 46.5601 31.5881 46.3643 31.8527C46.1685 32.1173 45.913 32.3324 45.6184 32.4806C45.3238 32.6289 44.9983 32.7061 44.6682 32.7061C44.3381 32.7061 44.0126 32.6289 43.718 32.4806C43.4234 32.3324 43.1679 32.1173 42.9721 31.8527C42.7763 31.5881 42.6458 31.2814 42.591 30.9574C42.5361 30.6333 42.5586 30.301 42.6565 29.9871Z" fill="#231F20"/>
<path d="M60.0561 31.9373L59.2135 30.7001H58.2656V31.9373H57.2335V27.5127H59.1504C60.33 27.5127 61.0883 28.1208 61.0883 29.1274C61.0987 29.4256 61.0149 29.7196 60.8486 29.9678C60.6823 30.2161 60.442 30.4062 60.1615 30.5114L61.1726 31.9373H60.0561ZM59.1082 28.3515H58.2656V29.8823H59.1082C59.7191 29.8823 60.0351 29.6097 60.0351 29.1274C60.0351 28.6451 59.6349 28.3515 59.024 28.3515H59.1082Z" fill="#231F20"/>
<path d="M70.9889 29.7141C70.9594 29.2278 71.0772 28.7439 71.3271 28.325C71.577 27.9062 71.9475 27.5717 72.3906 27.3648C72.8337 27.158 73.329 27.0884 73.8123 27.165C74.2955 27.2417 74.7446 27.461 75.1012 27.7946C75.4579 28.1282 75.7057 28.5607 75.8125 29.0361C75.9194 29.5115 75.8804 30.0079 75.7006 30.461C75.5208 30.9141 75.2084 31.303 74.804 31.5774C74.3996 31.8517 73.9218 31.9989 73.4324 31.9998C73.1187 32.0199 72.8042 31.9756 72.5084 31.8698C72.2126 31.764 71.9417 31.5988 71.7127 31.3845C71.4836 31.1702 71.3011 30.9114 71.1766 30.624C71.0521 30.3367 70.9882 30.027 70.9889 29.7141ZM74.8016 29.7141C74.7933 29.4414 74.7042 29.1772 74.5455 28.9548C74.3869 28.7324 74.1657 28.5616 73.9098 28.4639C73.654 28.3662 73.3748 28.346 73.1074 28.4058C72.84 28.4655 72.5964 28.6026 72.407 28.7998C72.2176 28.997 72.0911 29.2455 72.0431 29.5142C71.9952 29.7828 72.0281 30.0595 72.1377 30.3095C72.2472 30.5596 72.4286 30.7718 72.659 30.9196C72.8893 31.0673 73.1584 31.144 73.4324 31.14C73.6185 31.1433 73.8033 31.1081 73.9751 31.0368C74.1469 30.9654 74.302 30.8595 74.4307 30.7255C74.5593 30.5915 74.6587 30.4325 74.7225 30.2584C74.7864 30.0844 74.8133 29.899 74.8016 29.7141Z" fill="#231F20"/>
<path d="M89.9263 29.0854C89.9263 30.071 89.189 30.6791 88.0094 30.6791H87.1247V31.8953H86.0925V27.4707H88.0094C89.189 27.5126 89.9263 28.1208 89.9263 29.0854ZM88.8941 29.0854C88.8941 28.6031 88.5781 28.3095 87.9462 28.3095H87.1247V29.8403H87.9462C88.5781 29.8822 88.8941 29.6096 88.8941 29.0854Z" fill="#231F20"/>
<path d="M103.555 31.182V31.9998H100.08V27.5752H103.45V28.393H101.112V29.3576H103.218V30.1545H101.112V31.182H103.555Z" fill="#231F20"/>
<path d="M0 0.418945H2.4014V10.4425H29.7858V0.418945H32.1872V18.3901H29.7858V12.4556H2.4014V18.3901H0V0.418945Z" fill="#231F20"/>
<path d="M47.017 14.259C46.8142 15.5594 46.1275 16.7363 45.0934 17.5559C44.0593 18.3756 42.7533 18.7782 41.4348 18.6837C37.2218 18.6837 35.2838 15.8108 35.1153 11.8475C35.0493 10.9956 35.1582 10.1393 35.4355 9.33078C35.7128 8.52223 36.1526 7.7784 36.7282 7.14461C37.3037 6.51083 38.003 6.0004 38.7832 5.64445C39.5634 5.28849 40.4082 5.09447 41.2663 5.07422C45.8795 5.07422 47.2908 9.26818 47.1644 12.5185H37.3903C37.3377 13.0697 37.4055 13.6258 37.5891 14.1484C37.7727 14.6711 38.0677 15.148 38.454 15.5465C38.8402 15.9449 39.3085 16.2554 39.8266 16.4567C40.3448 16.658 40.9006 16.7452 41.4558 16.7125C42.2366 16.7838 43.0162 16.5636 43.6429 16.0947C44.2697 15.6257 44.699 14.9416 44.8473 14.1751L47.017 14.259ZM44.9105 10.6312C44.8939 9.6522 44.4916 8.71889 43.7902 8.03243C43.0888 7.34598 42.1445 6.96135 41.1609 6.96149C40.6723 6.95596 40.1874 7.04665 39.7341 7.22834C39.2808 7.41002 38.868 7.67912 38.5196 8.02016C38.1711 8.3612 37.8938 8.76745 37.7036 9.21555C37.5134 9.66366 37.4141 10.1448 37.4114 10.6312H44.9105Z" fill="#231F20"/>
<path d="M61.0041 18.3277C60.5365 18.5909 60.0027 18.7146 59.4664 18.6842C58.3499 18.6842 57.6548 18.0761 57.6548 16.5872C57.0971 17.2582 56.3946 17.7952 55.5995 18.1582C54.8044 18.5213 53.9372 18.7011 53.0626 18.6842C50.6823 18.6842 48.7233 17.6357 48.7233 15.0355C48.7233 12.0997 50.8298 11.4706 53.1469 11.0302C55.464 10.5899 57.5495 10.7367 57.5495 9.12197C57.5495 7.50729 56.0117 7.02499 54.6425 7.02499C52.8309 7.02499 51.4828 7.5702 51.3774 9.49943H49.2709C49.2709 6.27007 51.883 5.1377 54.79 5.1377C57.1492 5.1377 59.6981 5.66194 59.6981 8.70257V15.392C59.6981 16.3985 59.6981 16.8598 60.3722 16.8598C60.5961 16.8615 60.8181 16.8187 61.0252 16.734L61.0041 18.3277ZM57.5284 11.6593C56.2945 12.1878 54.9736 12.4864 53.6314 12.5401C52.22 12.7917 50.9983 13.295 50.9983 14.8887C50.9983 16.4824 52.22 16.7969 53.5261 16.7969C56.3698 16.7969 57.5284 15.0355 57.5284 13.8611V11.6593Z" fill="#231F20"/>
<path d="M63.1317 0.418945H65.2381V18.3901H63.1317V0.418945Z" fill="#231F20"/>
<path d="M71.5998 5.38915H74.2118V7.25547H71.5998V15.3289C71.5998 16.3145 71.8947 16.5032 73.2218 16.5032H74.2118V18.3905H72.5688C70.3359 18.3905 69.4512 17.9291 69.4512 15.5386V7.15063H67.3447V5.28431H69.4512V0.314453H71.5577L71.5998 5.38915Z" fill="#231F20"/>
<path d="M76.5922 0.418945H78.6987V7.29705C79.1143 6.56468 79.732 5.96615 80.4786 5.57223C81.2252 5.17832 82.0695 5.00551 82.9117 5.07426C86.3452 5.07426 87.3985 7.04541 87.3985 9.8344V18.3901H85.292V9.58276C85.3174 9.23023 85.266 8.87641 85.1413 8.5455C85.0166 8.21459 84.8215 7.91439 84.5695 7.66547C84.3174 7.41656 84.0143 7.22479 83.6809 7.10329C83.3475 6.9818 82.9917 6.93344 82.6378 6.96153C82.1032 6.93032 81.5682 7.01611 81.0705 7.21285C80.5728 7.4096 80.1244 7.71252 79.7569 8.10032C79.3895 8.48812 79.1118 8.95136 78.9436 9.45746C78.7753 9.96356 78.7204 10.5002 78.7829 11.0297V18.3901H76.6764L76.5922 0.418945Z" fill="#231F20"/>
<path d="M103.682 5.82956C103.462 4.68383 102.824 3.65974 101.89 2.95494C100.956 2.25014 99.7936 1.91457 98.6261 2.01303C94.4131 2.01303 92.5173 5.53598 92.5173 9.26861C92.5173 13.4626 94.3289 16.7968 98.6472 16.7968C99.3336 16.8081 100.015 16.6819 100.652 16.4256C101.288 16.1693 101.866 15.7882 102.352 15.305C102.837 14.8218 103.22 14.2462 103.477 13.6127C103.735 12.9792 103.862 12.3005 103.85 11.6172H106.252C106.239 12.6068 106.025 13.5835 105.622 14.488C105.218 15.3925 104.634 16.2059 103.905 16.8787C103.176 17.5515 102.317 18.0696 101.381 18.4016C100.444 18.7336 99.4497 18.8725 98.4576 18.8099C92.8333 18.8099 90.0316 14.6159 90.0316 9.45733C90.0316 4.29875 93.0018 -7.67969e-05 98.4576 -7.67969e-05C100.21 -0.152959 101.954 0.364974 103.336 1.44816C104.717 2.53135 105.632 4.09827 105.894 5.82956H103.682Z" fill="#166E39"/>
<path d="M120.47 18.3277C120.001 18.5876 119.469 18.7111 118.933 18.6842C117.816 18.6842 117.1 18.0761 117.1 16.5872C116.544 17.2605 115.842 17.7992 115.047 18.1625C114.251 18.5258 113.383 18.7042 112.508 18.6842C110.128 18.6842 108.19 17.6357 108.19 15.0355C108.19 12.0997 110.296 11.4706 112.613 11.0302C114.93 10.5899 116.995 10.7367 116.995 9.12197C116.995 7.50729 115.457 7.02499 114.088 7.02499C112.276 7.02499 110.949 7.5702 110.844 9.49943H108.737C108.864 6.27007 111.37 5.1377 114.277 5.1377C116.616 5.1377 119.164 5.66194 119.164 8.70257V15.392C119.164 16.3985 119.164 16.8598 119.86 16.8598C120.083 16.8599 120.305 16.8172 120.513 16.734L120.47 18.3277ZM116.932 11.6593C115.705 12.1881 114.391 12.4867 113.056 12.5401C111.623 12.7917 110.422 13.295 110.422 14.8887C110.422 16.4824 111.623 16.7969 112.95 16.7969C115.773 16.7969 116.932 15.0355 116.932 13.8611V11.6593Z" fill="#166E39"/>
<path d="M122.387 5.38962H124.494V8.1157C124.858 7.16515 125.519 6.35631 126.38 5.80875C127.241 5.26119 128.256 5.00396 129.276 5.07508V7.33981C125.821 7.33981 124.557 9.31098 124.557 12.6033V18.3909H122.451L122.387 5.38962Z" fill="#166E39"/>
<path d="M141.578 14.259C141.375 15.5594 140.688 16.7363 139.654 17.5559C138.62 18.3756 137.314 18.7782 135.995 18.6837C131.782 18.6837 129.844 15.8108 129.676 11.8475C129.61 10.9956 129.719 10.1393 129.996 9.33078C130.273 8.52223 130.713 7.7784 131.289 7.14461C131.864 6.51083 132.563 6.0004 133.344 5.64445C134.124 5.28849 134.969 5.09447 135.827 5.07422C140.44 5.07422 141.851 9.26818 141.725 12.5185H131.951C131.898 13.0697 131.966 13.6258 132.15 14.1484C132.333 14.6711 132.628 15.148 133.014 15.5465C133.401 15.9449 133.869 16.2554 134.387 16.4567C134.905 16.658 135.461 16.7452 136.016 16.7125C136.797 16.7838 137.577 16.5636 138.203 16.0947C138.83 15.6257 139.26 14.9416 139.408 14.1751L141.578 14.259ZM139.471 10.6312C139.471 9.64126 139.076 8.69186 138.373 7.99186C137.67 7.29185 136.716 6.89859 135.721 6.89859C134.727 6.89859 133.773 7.29185 133.07 7.99186C132.367 8.69186 131.972 9.64126 131.972 10.6312H139.471Z" fill="#166E39"/>
<path d="M28.6694 7.84277H3.58104C3.24366 7.84277 2.97015 8.11504 2.97015 8.4509V9.33163C2.97015 9.66749 3.24366 9.93976 3.58104 9.93976H28.6694C29.0068 9.93976 29.2803 9.66749 29.2803 9.33163V8.4509C29.2803 8.11504 29.0068 7.84277 28.6694 7.84277Z" fill="#166E39"/>
<path d="M8.72088 5.1377H3.58104C3.24366 5.1377 2.97015 5.40996 2.97015 5.74582V6.62656C2.97015 6.96241 3.24366 7.23468 3.58104 7.23468H8.72088C9.05827 7.23468 9.33177 6.96241 9.33177 6.62656V5.74582C9.33177 5.40996 9.05827 5.1377 8.72088 5.1377Z" fill="#166E39"/>
<path d="M142.167 3.858C143.121 3.858 143.895 3.08814 143.895 2.13847C143.895 1.1888 143.121 0.418945 142.167 0.418945C141.213 0.418945 140.44 1.1888 140.44 2.13847C140.44 3.08814 141.213 3.858 142.167 3.858Z" stroke="#231F20" stroke-width="0.11" stroke-miterlimit="10"/>
<path d="M142.673 3.14529L142.252 2.5162H141.62V3.12433H141.346V1.02734H142.209C142.736 1.02734 143.052 1.29994 143.052 1.74031C143.055 1.87835 143.014 2.01373 142.934 2.12684C142.855 2.23995 142.741 2.32491 142.61 2.36941L143.073 3.04045L142.673 3.14529ZM142.673 1.84517C142.673 1.55159 142.483 1.38383 142.104 1.38383H141.62V2.28553H142.209C142.483 2.28553 142.673 2.11777 142.673 1.82419V1.84517Z" fill="#231F20"/>
</g>
<defs>
<clipPath id="clip0_347_156">
<rect width="144" height="32" fill="white"/>
</clipPath>
</defs>
</svg>
