<svg width="251" height="28" viewBox="0 0 251 28" fill="none" xmlns="http://www.w3.org/2000/svg">
<path d="M0 20.9042C0.241564 16.5624 0.421134 12.5082 0.538709 8.74152C0.656285 4.97483 0.716142 2.15409 0.718279 0.279297C0.984427 0.279297 1.20889 0.295331 1.39167 0.295331C1.57444 0.295331 1.7957 0.295331 2.03299 0.295331L1.62254 9.9472H15.661L15.9721 2.35717C15.9956 1.92963 16.0063 1.23914 16.0041 0.285711C16.2703 0.285711 16.4948 0.285711 16.6775 0.285711C16.8603 0.285711 17.0784 0.285711 17.3189 0.285711C16.9341 6.53217 16.6647 13.4071 16.5108 20.9106C16.2607 20.9106 16.0426 20.8945 15.8695 20.8945C15.6963 20.8945 15.443 20.8945 15.1961 20.9106C15.4398 17.4047 15.5916 14.0549 15.6514 10.8611H1.60651L1.36281 18.278L1.33074 20.9074C1.07101 20.9074 0.846543 20.9074 0.666974 20.9074C0.487404 20.9074 0.259735 20.8945 0 20.9042Z" fill="#231F20"/>
<path d="M32.7587 19.4227C32.678 19.802 32.617 20.1852 32.5759 20.5707C31.8399 20.7889 31.09 20.9571 30.3313 21.0741C29.6558 21.1712 28.9742 21.2194 28.2919 21.2184C27.2028 21.2359 26.1186 21.0689 25.0853 20.7246C24.1575 20.4017 23.3312 19.8398 22.6899 19.0957C22.0354 18.3546 21.5516 17.4789 21.2726 16.5304C20.6231 14.2407 20.7356 11.8018 21.5933 9.58167C22.1014 8.28365 23.0021 7.17661 24.1696 6.41496C25.337 5.65331 26.7131 5.27505 28.1059 5.33292C29.1631 5.323 30.2099 5.54177 31.1746 5.97424C32.0949 6.40019 32.8466 7.12136 33.3102 8.02326C33.8407 9.06565 34.102 10.2242 34.0702 11.3934C34.0702 11.6339 34.0702 11.868 34.0413 12.0892H22.0743C22.023 12.7306 21.9973 13.234 21.9973 13.5675C21.9847 14.5033 22.1155 15.4354 22.3853 16.3316C22.6357 17.168 23.0744 17.9359 23.6679 18.5762C24.2344 19.1805 24.9369 19.6411 25.717 19.9198C26.5266 20.2145 27.3821 20.3633 28.2438 20.3591C29.793 20.3232 31.3229 20.0059 32.7587 19.4227ZM22.1769 11.2587L32.935 11.278C32.9362 10.7412 32.8954 10.2051 32.8132 9.67467C32.7334 9.27615 32.6008 8.89008 32.4188 8.5267C32.2417 8.15476 32.0104 7.81113 31.7325 7.507C31.4598 7.21709 31.1427 6.97246 30.793 6.78231C30.4149 6.57783 30.0102 6.42676 29.5905 6.33339C29.1336 6.23193 28.6669 6.18139 28.1989 6.18268C27.6698 6.18216 27.1425 6.2435 26.6276 6.36545C26.1403 6.47455 25.6677 6.64141 25.2199 6.86247C24.7892 7.07772 24.3891 7.34947 24.0303 7.67054C23.6778 7.97958 23.3721 8.33818 23.1228 8.73513C22.9036 9.07967 22.7209 9.44614 22.5777 9.82858C22.4211 10.2978 22.2905 10.7752 22.1865 11.2587H22.1769Z" fill="#231F20"/>
<path d="M37.777 7.25958C37.8536 6.87058 37.9093 6.47773 37.9437 6.08275C38.8216 5.83126 39.7149 5.63738 40.618 5.50235C41.3785 5.39407 42.1458 5.34049 42.914 5.34202C43.7535 5.33696 44.5915 5.41646 45.4151 5.57931C46.0958 5.69563 46.7414 5.96418 47.3038 6.36493C47.7475 6.67494 48.0837 7.11538 48.2658 7.62513C48.4214 8.0936 48.5004 8.58409 48.4999 9.07772C48.4999 9.58009 48.4827 10.2214 48.4485 11.0017C48.4101 11.7713 48.3652 12.605 48.3042 13.4868C48.2433 14.3686 48.1856 15.4781 48.1375 16.8024C48.0894 18.1267 48.0605 19.0823 48.0605 19.6659V20.9486C47.7976 20.9486 47.586 20.9486 47.4192 20.9486C47.2525 20.9486 47.0376 20.9486 46.7779 20.9486C46.919 19.4051 47.0184 18.1556 47.0761 17.2C47.1306 16.2381 47.1755 15.2119 47.2108 14.1121C47.2461 13.0122 47.2942 11.9797 47.3551 11.0209C47.0344 11.2839 46.8036 11.4763 46.6368 11.6013C46.4656 11.729 46.2844 11.8426 46.0949 11.9412C45.8632 12.0601 45.6256 12.1671 45.383 12.2619C45.1073 12.3677 44.8539 12.4575 44.6199 12.5344C44.3858 12.6114 43.8278 12.7685 42.9364 13.009C42.045 13.2495 41.4068 13.4291 41.0124 13.5509C40.3213 13.761 39.6489 14.0281 39.0019 14.3494C38.534 14.5891 38.1022 14.8935 37.7193 15.2536C37.4385 15.5135 37.2118 15.8262 37.0523 16.1739C36.8908 16.5609 36.8091 16.9764 36.8118 17.3956C36.7987 18.0159 37.0067 18.6206 37.3986 19.1016C37.7848 19.5782 38.302 19.9316 38.8865 20.118C39.5888 20.3305 40.3205 20.4301 41.0541 20.4131C41.4634 20.4138 41.8723 20.3913 42.279 20.3457C42.6702 20.3008 43.0422 20.2399 43.3885 20.1661C43.7348 20.0924 44.2383 19.9481 44.8924 19.7365C44.8026 20.118 44.7257 20.5028 44.6648 20.8844C44.009 21.0248 43.3465 21.1318 42.6799 21.2051C42.1711 21.25 41.6901 21.2724 41.2369 21.2724C40.4512 21.2782 39.6667 21.2127 38.8929 21.0768C38.2392 20.9729 37.622 20.7073 37.0972 20.304C36.6378 19.9541 36.2694 19.4987 36.023 18.9765C35.7933 18.4801 35.6751 17.9394 35.6767 17.3924C35.6757 16.9739 35.7473 16.5584 35.8883 16.1643C36.0363 15.7504 36.2531 15.3645 36.5296 15.0228C36.8031 14.692 37.1279 14.4073 37.4916 14.1794C37.9828 13.8493 38.5099 13.5761 39.0628 13.3649C39.7266 13.102 40.4449 12.8615 41.208 12.6403C41.4197 12.5825 42.2502 12.3645 43.6996 11.9989C44.3346 11.8351 44.9554 11.6206 45.5562 11.3576C46.0993 11.134 46.5699 10.7644 46.9158 10.2898C47.2205 9.88645 47.3899 9.39714 47.4 8.89173C47.3999 8.54886 47.3232 8.21034 47.1755 7.9009C46.9843 7.53956 46.7067 7.23111 46.3675 7.00305C45.9355 6.70309 45.4429 6.50168 44.9245 6.41303C44.3271 6.30072 43.7206 6.24489 43.1128 6.24629C42.4207 6.2433 41.7294 6.29153 41.0445 6.39058C40.4951 6.46207 39.951 6.56918 39.4155 6.71124C38.8602 6.86554 38.3133 7.04856 37.777 7.25958Z" fill="#231F20"/>
<path d="M52.3702 20.9234C52.8363 12.5221 53.111 5.64823 53.1943 0.301758C53.4541 0.301758 53.6625 0.301758 53.8132 0.301758C53.9639 0.301758 54.1724 0.301758 54.4321 0.301758L54.0505 7.67374L53.6112 20.9427C53.3483 20.9427 53.1398 20.9266 52.9891 20.9266C52.8384 20.9266 52.6332 20.9138 52.3702 20.9234Z" fill="#231F20"/>
<path d="M64.2923 19.977C64.2095 20.2932 64.1484 20.6146 64.1095 20.939C63.3759 21.1281 62.6224 21.2293 61.8649 21.2404C61.3478 21.2471 60.8321 21.1834 60.3321 21.0513C59.9062 20.939 59.524 20.701 59.2355 20.3682C58.9619 20.058 58.7701 19.6843 58.6775 19.2812C58.585 18.86 58.5398 18.4298 58.5428 17.9986C58.5428 17.9184 58.5428 17.7934 58.5428 17.6202C58.5428 17.447 58.5653 17.0719 58.5974 16.4883L59.1072 6.48687H57.241C57.2794 6.21431 57.3051 5.94496 57.3179 5.67239H59.1617C59.213 5.03107 59.2547 4.08406 59.2868 2.83135C59.6226 2.7912 59.9549 2.72581 60.2808 2.63574C60.206 4.26897 60.1697 5.28119 60.1718 5.67239H64.7123C64.6708 5.94215 64.6451 6.21411 64.6354 6.48687H60.1205L59.6203 16.8378V17.4567C59.5794 18.0853 59.6791 18.7151 59.9121 19.3005C60.089 19.6618 60.3812 19.954 60.7426 20.131C61.0895 20.299 61.4698 20.3867 61.8553 20.3875C62.146 20.3856 62.4364 20.3642 62.7243 20.3234C63.0193 20.2753 63.5451 20.1598 64.2923 19.977Z" fill="#231F20"/>
<path d="M66.7839 20.9295L67.2425 11.0789C67.2703 10.1233 67.3312 7.65528 67.4253 3.67482L67.5182 0.304688C67.7491 0.304688 67.9415 0.304688 68.0922 0.304688C68.2429 0.304688 68.461 0.304688 68.6822 0.304688L68.2686 9.12605C68.4995 8.65361 68.6983 8.28164 68.865 8.01015C69.0573 7.70579 69.2832 7.42398 69.5384 7.17002C69.8119 6.89217 70.1139 6.64389 70.4395 6.42929C70.7778 6.21384 71.1365 6.03232 71.5105 5.88738C71.9652 5.71441 72.4355 5.58556 72.915 5.50259C73.4768 5.40072 74.0467 5.35027 74.6177 5.35187C75.4564 5.34716 76.2927 5.44188 77.1092 5.63406C77.8403 5.79395 78.5269 6.11371 79.1197 6.57038C79.6467 6.97435 80.0455 7.52231 80.2677 8.14803C80.4781 8.74008 80.5865 9.36352 80.5884 9.99183C80.5884 10.1938 80.5884 10.476 80.5884 10.8384C80.567 11.3942 80.5242 12.1424 80.4601 13.083L80.21 19.2333C80.1907 19.6245 80.1683 20.1952 80.1458 20.9263C79.8861 20.9263 79.6873 20.9103 79.5494 20.9103C79.4115 20.9103 79.1967 20.9103 78.9369 20.9263C79.0567 19.6245 79.1475 18.314 79.2095 16.995L79.4211 13.3107C79.4917 12.1723 79.5302 11.1911 79.5302 10.3638C79.5637 9.54972 79.3788 8.7415 78.9947 8.02297C78.5744 7.36955 77.9375 6.88484 77.1958 6.65376C76.3407 6.34339 75.4375 6.18705 74.5279 6.19201C73.9072 6.19179 73.2886 6.2628 72.6841 6.40364C72.1707 6.51795 71.6732 6.69456 71.2026 6.92952C70.8535 7.11289 70.5301 7.34146 70.2407 7.60933C69.9153 7.91456 69.6308 8.26053 69.3941 8.63864C69.1104 9.11435 68.8823 9.62112 68.7143 10.149C68.5095 10.8223 68.3773 11.5157 68.3199 12.2172C68.2494 12.8949 68.1788 14.2149 68.1083 16.1774L67.9864 20.9199C67.7235 20.9199 67.5279 20.9199 67.3964 20.9199C67.2649 20.9199 67.0469 20.9199 66.7839 20.9295Z" fill="#231F20"/>
<path d="M100.04 19.3425C99.9511 19.7511 99.8857 20.1643 99.8439 20.5803C98.8939 20.8165 97.93 20.9932 96.958 21.1093C96.1533 21.2041 95.344 21.2534 94.5338 21.2568C93.1085 21.2642 91.6926 21.0245 90.3492 20.5482C89.0759 20.101 87.9159 19.3809 86.9502 18.4382C86.0064 17.5094 85.2927 16.3729 84.8659 15.1194C84.4197 13.8217 84.1964 12.4578 84.2053 11.0855C84.2025 9.53117 84.4661 7.98784 84.9845 6.52252C85.4304 5.15639 86.1947 3.91588 87.2145 2.90337C88.2342 1.89086 89.4801 1.1354 90.8494 0.699326C92.2897 0.226632 93.7971 -0.00944129 95.313 0.000288954C95.8485 0.000288954 96.4225 0.0259386 97.0446 0.0772443C97.6666 0.12855 98.1701 0.183063 98.5709 0.243989C98.9717 0.304914 99.4976 0.40432 100.174 0.54541C100.196 0.975051 100.241 1.40321 100.309 1.82805C99.3744 1.5098 98.4157 1.26745 97.4422 1.10336C96.674 0.984074 95.898 0.922977 95.1206 0.920582C93.8456 0.916799 92.5785 1.12041 91.3689 1.52342C90.179 1.91682 89.0937 2.57459 88.1944 3.44739C87.2501 4.37756 86.5278 5.50868 86.0812 6.7566C85.5951 8.05817 85.3464 9.43639 85.3469 10.8258C85.3425 12.1323 85.546 13.4311 85.9497 14.6737C86.3121 15.8313 86.944 16.8863 87.7935 17.752C88.6306 18.5836 89.6367 19.2256 90.7436 19.6343C91.94 20.0716 93.2056 20.2889 94.4793 20.2756C96.3694 20.2494 98.2444 19.9347 100.04 19.3425Z" fill="#166E39"/>
<path d="M104.231 7.28594C104.307 6.89694 104.363 6.5041 104.397 6.10912C105.276 5.85828 106.169 5.66336 107.072 5.52552C107.833 5.42148 108.6 5.36899 109.368 5.36839C110.207 5.36333 111.045 5.44283 111.869 5.60568C112.555 5.71968 113.206 5.98833 113.773 6.3913C114.217 6.70193 114.553 7.14215 114.735 7.65149C114.891 8.11996 114.97 8.61045 114.97 9.10409C114.97 9.60645 114.952 10.2478 114.918 11.028C114.883 11.7976 114.835 12.6313 114.774 13.5132C114.713 14.395 114.655 15.5045 114.607 16.8288C114.559 18.1531 114.53 19.1087 114.53 19.6923V20.9749C114.267 20.9749 114.056 20.9589 113.889 20.9589C113.722 20.9589 113.504 20.9589 113.248 20.9749C113.389 19.4315 113.488 18.182 113.546 17.2264C113.604 16.2708 113.648 15.2415 113.68 14.1384C113.717 13.0354 113.766 12.005 113.828 11.0473C113.507 11.3102 113.273 11.5026 113.107 11.6277C112.937 11.7572 112.755 11.8709 112.565 11.9676C112.334 12.0884 112.096 12.1955 111.853 12.2882C111.577 12.3941 111.324 12.4838 111.09 12.5608C110.855 12.6378 110.298 12.7949 109.406 13.0354C108.515 13.2759 107.877 13.4554 107.482 13.5773C106.792 13.7888 106.119 14.0559 105.472 14.3757C105.004 14.6154 104.572 14.9199 104.189 15.28C103.908 15.5399 103.682 15.8526 103.522 16.2003C103.361 16.5872 103.279 17.0027 103.281 17.422C103.27 18.0421 103.478 18.6463 103.868 19.1279C104.255 19.6046 104.772 19.9579 105.356 20.1444C106.059 20.3566 106.79 20.4562 107.524 20.4394C107.933 20.4397 108.342 20.4183 108.749 20.3753C109.143 20.3272 109.512 20.2663 109.858 20.1925C110.205 20.1188 110.708 19.9745 111.362 19.7628C111.272 20.1444 111.195 20.5292 111.134 20.9108C110.479 21.0512 109.816 21.1582 109.15 21.2315C108.639 21.2763 108.158 21.2988 107.707 21.2988C106.921 21.3046 106.136 21.2391 105.363 21.1032C104.71 20.999 104.093 20.7345 103.567 20.3336C103.11 19.9821 102.743 19.5271 102.496 19.0061C102.261 18.5043 102.142 17.9566 102.146 17.4028C102.145 16.9842 102.217 16.5687 102.358 16.1746C102.506 15.7607 102.723 15.3748 102.999 15.0331C103.273 14.7024 103.598 14.4176 103.961 14.1898C104.453 13.8596 104.98 13.5864 105.533 13.3753C106.196 13.1155 106.915 12.8718 107.678 12.6538C107.892 12.5939 108.722 12.3802 110.169 12.0125C110.805 11.8481 111.427 11.6337 112.029 11.3712C112.572 11.1485 113.042 10.7787 113.385 10.3034C113.69 9.89999 113.86 9.41068 113.87 8.90527C113.87 8.5634 113.793 8.22586 113.645 7.91764C113.455 7.55467 113.177 7.24494 112.837 7.01658C112.405 6.71663 111.913 6.51522 111.394 6.42657C110.798 6.31425 110.192 6.25842 109.586 6.25983C108.893 6.25672 108.2 6.30495 107.514 6.40412C106.965 6.4756 106.421 6.58272 105.885 6.72478C105.324 6.88275 104.772 7.07006 104.231 7.28594Z" fill="#166E39"/>
<path d="M118.715 20.9489C118.837 18.8262 118.953 16.3282 119.064 13.4551C119.176 10.582 119.232 8.44426 119.234 7.04191V5.68231C119.436 5.68231 119.622 5.69834 119.795 5.69834C119.969 5.69834 120.161 5.69834 120.353 5.69834L120.219 8.55222C120.48 7.9994 120.803 7.47772 121.181 6.99702C121.469 6.64732 121.814 6.34821 122.2 6.112C122.623 5.86265 123.082 5.67987 123.56 5.57008C124.091 5.44276 124.636 5.37925 125.183 5.38089C125.605 5.38239 126.026 5.43296 126.436 5.5316C126.437 5.87557 126.458 6.21921 126.497 6.56092C125.925 6.4052 125.336 6.31907 124.743 6.30439C124.299 6.29768 123.857 6.36375 123.435 6.49999C123.044 6.63183 122.677 6.82563 122.348 7.07398C121.968 7.36682 121.634 7.71484 121.357 8.1065C121.042 8.53093 120.796 9.00287 120.629 9.50458C120.406 10.185 120.27 10.8906 120.222 11.6049C120.113 12.8875 120.045 14.3583 120.017 16.0172C119.976 18.2426 119.956 19.8897 119.956 20.9586C119.693 20.9586 119.491 20.9586 119.347 20.9586C119.202 20.9586 118.978 20.9393 118.715 20.9489Z" fill="#166E39"/>
<path d="M139.959 19.4647C139.878 19.844 139.817 20.2271 139.776 20.6127C139.04 20.8309 138.29 20.999 137.531 21.1161C136.856 21.2132 136.174 21.2614 135.492 21.2604C134.403 21.2779 133.319 21.1109 132.285 20.7666C131.358 20.4421 130.532 19.8805 129.89 19.1377C129.236 18.3958 128.753 17.5204 128.473 16.5724C127.818 14.2844 127.925 11.8456 128.777 9.62366C129.285 8.32564 130.186 7.2186 131.353 6.45695C132.521 5.6953 133.897 5.31704 135.29 5.37492C136.347 5.36499 137.394 5.58376 138.359 6.01624C139.279 6.44135 140.031 7.16275 140.494 8.06526C141.026 9.10712 141.287 10.2661 141.254 11.4354C141.254 11.6759 141.254 11.91 141.225 12.1312H129.258C129.21 12.7725 129.184 13.276 129.184 13.6095C129.181 14.5501 129.323 15.4857 129.604 16.3832C129.855 17.2196 130.294 17.9875 130.887 18.6278C131.454 19.2314 132.156 19.6919 132.936 19.9714C133.746 20.2659 134.601 20.4146 135.463 20.4107C137.006 20.3694 138.529 20.0489 139.959 19.4647ZM129.377 11.3007L140.135 11.32C140.138 10.7831 140.097 10.2469 140.013 9.71665C139.933 9.31814 139.801 8.93207 139.619 8.56869C139.442 8.19675 139.21 7.85312 138.932 7.54899C138.66 7.25838 138.343 7.01366 137.993 6.8243C137.616 6.62003 137.212 6.46997 136.794 6.37858C136.337 6.27483 135.87 6.22319 135.402 6.22466C134.872 6.22399 134.343 6.28533 133.828 6.40744C133.34 6.51654 132.868 6.6834 132.42 6.90447C131.99 7.12049 131.59 7.39217 131.23 7.71253C130.878 8.02156 130.572 8.38018 130.323 8.77712C130.105 9.12242 129.922 9.48874 129.778 9.87057C129.621 10.3397 129.49 10.8172 129.386 11.3007H129.377Z" fill="#166E39"/>
<path d="M159.948 20.9685C160.143 18.2364 160.319 14.7092 160.478 10.3867C160.636 6.06418 160.715 2.71328 160.715 0.333984C162.951 0.333984 165.051 0.33933 167.016 0.350018H172.528C172.489 0.75405 172.467 1.11319 172.467 1.42423L171.258 1.32162C170.938 1.28955 170.405 1.27031 169.629 1.2639H167.346C164.96 1.2639 163.143 1.2639 161.895 1.2639L161.574 9.93776C163.094 9.96982 164.489 9.98586 165.759 9.98586C167.272 9.98586 169.136 9.97089 171.351 9.94097C171.313 10.2424 171.287 10.5823 171.274 10.9382L165.599 10.8805C164.932 10.8805 163.58 10.8955 161.545 10.9254L161.225 20.0065H165.557C167.267 20.0065 168.448 19.999 169.1 19.984C169.741 19.984 170.659 19.9327 171.794 19.8718C171.748 20.2281 171.724 20.5868 171.72 20.946C169.302 20.946 167.534 20.9407 166.416 20.93L159.948 20.9685Z" fill="#231F20"/>
<path d="M189.048 20.9776C188.846 20.9776 188.66 20.9615 188.487 20.9615C188.314 20.9615 188.131 20.9615 187.929 20.9776L188.054 17.6972C187.891 18.0797 187.701 18.4505 187.487 18.8067C187.318 19.0617 187.128 19.302 186.919 19.525C186.661 19.7995 186.369 20.0408 186.05 20.2433C185.666 20.4877 185.252 20.6827 184.819 20.8236C184.343 20.9851 183.854 21.1021 183.357 21.1732C182.858 21.241 182.356 21.2752 181.853 21.2758C181.035 21.2815 180.219 21.1845 179.425 20.9872C178.695 20.8077 178.015 20.4669 177.434 19.9899C176.888 19.564 176.476 18.9895 176.248 18.3353C176.025 17.6445 175.917 16.9221 175.927 16.1965C175.927 15.583 175.995 14.0652 176.132 11.6432C176.269 9.2211 176.337 7.24369 176.337 5.71094C176.6 5.71094 176.796 5.72697 176.927 5.72697C177.059 5.72697 177.248 5.72697 177.517 5.72697C177.438 6.59275 177.32 8.39059 177.162 11.1205C177.003 13.8504 176.924 15.5605 176.924 16.251C176.907 16.9137 177.009 17.5741 177.226 18.2007C177.43 18.7397 177.798 19.2016 178.277 19.5218C178.788 19.8765 179.363 20.1261 179.971 20.2561C180.602 20.3969 181.247 20.4678 181.895 20.4677C182.571 20.4707 183.245 20.3823 183.899 20.2048C184.461 20.0682 185.001 19.8523 185.502 19.5635C185.924 19.3043 186.301 18.9796 186.621 18.6015C187.011 18.1343 187.335 17.6152 187.583 17.0591C187.843 16.4446 188.016 15.7972 188.099 15.1351C188.208 14.3741 188.302 12.9974 188.381 11.005C188.452 9.08107 188.492 7.32813 188.5 5.74621C188.773 5.74621 188.975 5.74621 189.106 5.74621C189.238 5.74621 189.427 5.74621 189.696 5.74621L189.135 16.328L189.074 18.6111C189.055 19.5239 189.046 20.3127 189.048 20.9776Z" fill="#231F20"/>
<path d="M193.323 20.9777C193.445 18.8549 193.561 16.3569 193.672 13.4838C193.784 10.6107 193.84 8.47298 193.842 7.07063L193.826 5.71103C194.028 5.71103 194.214 5.71103 194.387 5.71103C194.561 5.71103 194.753 5.71103 194.945 5.71103L194.808 8.56491C195.07 8.0127 195.393 7.49114 195.77 7.0097C196.057 6.66012 196.4 6.36099 196.786 6.12468C197.209 5.87575 197.667 5.69299 198.146 5.58277C198.678 5.45564 199.224 5.39214 199.771 5.39358C200.194 5.39472 200.615 5.44639 201.025 5.54749C201.025 5.89045 201.045 6.23311 201.086 6.57361C200.514 6.41789 199.925 6.33176 199.332 6.31708C198.888 6.31037 198.446 6.37645 198.024 6.51268C197.633 6.64452 197.266 6.83832 196.937 7.08666C196.557 7.38018 196.224 7.72811 195.946 8.11919C195.631 8.54362 195.385 9.01556 195.218 9.51727C194.994 10.1976 194.856 10.9031 194.808 11.6176C194.701 12.9002 194.633 14.371 194.606 16.0299C194.565 18.2553 194.545 19.9024 194.545 20.9713C194.282 20.9713 194.08 20.9552 193.935 20.9552C193.791 20.9552 193.586 20.968 193.323 20.9777Z" fill="#231F20"/>
<path d="M210.145 5.40936C211.065 5.40752 211.981 5.5393 212.864 5.80057C213.732 6.05695 214.527 6.51641 215.182 7.14092C215.882 7.82365 216.405 8.66676 216.705 9.59718C217.062 10.6384 217.241 11.7321 217.234 12.8326C217.237 14.0308 217.047 15.2216 216.673 16.3599C216.357 17.4123 215.821 18.3859 215.102 19.217C214.452 19.9532 213.621 20.506 212.691 20.8203C211.051 21.3589 209.294 21.4344 207.615 21.0383C206.917 20.872 206.254 20.5879 205.652 20.1982C205.029 19.7919 204.485 19.2746 204.049 18.6719C203.569 18.0013 203.217 17.248 203.01 16.4497C202.771 15.5785 202.651 14.6788 202.654 13.7754C202.634 12.2442 202.942 10.7265 203.558 9.32462C204.097 8.05497 205.054 7.00817 206.271 6.35851C207.464 5.72651 208.795 5.40039 210.145 5.40936ZM210.116 6.2527C208.941 6.24389 207.785 6.5459 206.765 7.1281C205.722 7.72888 204.921 8.67304 204.498 9.7992C204.004 11.0527 203.757 12.3897 203.77 13.7369C203.763 14.6986 203.903 15.6557 204.187 16.5747C204.438 17.422 204.897 18.1933 205.521 18.8194C206.075 19.395 206.756 19.8341 207.509 20.102C208.233 20.3419 208.991 20.4621 209.753 20.4579C210.615 20.4646 211.471 20.3169 212.28 20.0218C213.084 19.7164 213.799 19.2135 214.358 18.5596C214.98 17.8278 215.431 16.9669 215.679 16.0392C215.966 15.0066 216.109 13.9396 216.106 12.8679C216.111 11.879 215.971 10.8946 215.689 9.9467C215.462 9.11705 215.02 8.36239 214.406 7.7598C213.843 7.22105 213.159 6.82424 212.412 6.60222C211.667 6.37488 210.894 6.25714 210.116 6.2527Z" fill="#231F20"/>
<path d="M220.233 27.6826L220.412 24.6332L220.89 10.9538L220.996 6.36515C222.127 6.05089 223.276 5.80355 224.437 5.62443C225.386 5.48534 226.344 5.41568 227.303 5.416C228.62 5.38254 229.928 5.63754 231.135 6.16313C232.244 6.69799 233.13 7.60614 233.636 8.72842C234.25 10.0161 234.556 11.4289 234.531 12.8553C234.543 14.4042 234.215 15.9368 233.569 17.3446C233.043 18.5841 232.147 19.631 231.004 20.3427C229.918 20.9875 228.675 21.3203 227.412 21.3047C226.822 21.3044 226.234 21.2377 225.658 21.1059C225.106 20.9844 224.575 20.7835 224.081 20.5095C223.618 20.2573 223.205 19.9251 222.859 19.5283C222.404 18.9649 222.01 18.3543 221.685 17.7069L221.448 25.701V26.214C221.448 26.5571 221.448 27.0509 221.448 27.6923C221.185 27.6923 220.977 27.6923 220.826 27.6923C220.675 27.6923 220.508 27.673 220.233 27.6826ZM222.176 7.30148C222.092 8.15657 222.017 9.38043 221.948 10.973C221.881 12.5763 221.849 13.6185 221.846 14.1315C221.84 14.953 221.932 15.7723 222.121 16.5718C222.309 17.336 222.682 18.0421 223.208 18.6272C223.735 19.2331 224.393 19.7112 225.132 20.0253C225.863 20.3341 226.648 20.4933 227.441 20.4934C228.536 20.5085 229.61 20.1873 230.516 19.5731C231.476 18.8946 232.211 17.9458 232.629 16.8475C233.139 15.5978 233.394 14.2592 233.38 12.9098C233.411 11.6387 233.148 10.3776 232.61 9.22544C232.171 8.26784 231.437 7.47571 230.516 6.96478C229.588 6.48658 228.556 6.24431 227.512 6.25933C225.69 6.2882 223.887 6.64108 222.189 7.30148H222.176Z" fill="#231F20"/>
<path d="M249.272 19.5062C249.191 19.8855 249.13 20.2686 249.089 20.6541C248.353 20.8738 247.603 21.042 246.844 21.1576C246.169 21.2546 245.487 21.3028 244.805 21.3019C243.716 21.3203 242.632 21.1544 241.598 20.8112C240.671 20.4871 239.846 19.9241 239.206 19.1791C238.551 18.438 238.066 17.5624 237.785 16.6138C237.131 14.3247 237.238 11.885 238.09 9.66189C238.6 8.36602 239.501 7.2616 240.669 6.50279C241.836 5.74398 243.212 5.36864 244.603 5.42917C245.66 5.41762 246.707 5.63646 247.671 6.07049C248.594 6.49165 249.347 7.21274 249.807 8.11631C250.338 9.15854 250.601 10.317 250.57 11.4864C250.57 11.7301 250.57 11.961 250.538 12.1823H238.571C238.523 12.8236 238.497 13.3302 238.497 13.6605C238.493 14.6023 238.634 15.5392 238.917 16.4374C239.167 17.274 239.606 18.042 240.2 18.6821C240.768 19.285 241.47 19.7462 242.249 20.0288C243.059 20.321 243.915 20.4686 244.776 20.4649C246.32 20.4196 247.843 20.0947 249.272 19.5062ZM238.69 11.3421L249.448 11.3614C249.451 10.8245 249.41 10.2883 249.326 9.75809C249.247 9.3584 249.114 8.97121 248.932 8.60692C248.755 8.23498 248.523 7.89134 248.245 7.58722C247.974 7.29737 247.658 7.05273 247.309 6.86253C246.931 6.65878 246.526 6.50877 246.107 6.41681C245.649 6.31553 245.181 6.26499 244.712 6.2661C244.183 6.26453 243.655 6.3248 243.141 6.44567C242.654 6.55623 242.181 6.72302 241.733 6.94269C241.303 7.15871 240.903 7.4304 240.543 7.75076C240.191 8.05979 239.885 8.4184 239.636 8.81534C239.417 9.16133 239.234 9.5288 239.091 9.912C238.934 10.3811 238.803 10.8586 238.699 11.3421H238.69Z" fill="#231F20"/>
</svg>
